<?xml version="1.0" standalone="no"?>
<!DOCTYPE svg PUBLIC "-//W3C//DTD SVG 20010904//EN"
 "http://www.w3.org/TR/2001/REC-SVG-20010904/DTD/svg10.dtd">
<svg version="1.0" xmlns="http://www.w3.org/2000/svg"
 width="303.000000pt" height="303.000000pt" viewBox="0 0 303.000000 303.000000"
 preserveAspectRatio="xMidYMid meet">
<metadata>
Created by potrace 1.14, written by Peter Selinger 2001-2017
</metadata>
<g transform="translate(0.000000,303.000000) scale(0.100000,-0.100000)"
fill="#000000" stroke="none">
<path d="M1379 3026 c-2 -2 -26 -6 -54 -10 -180 -21 -338 -71 -514 -163 -404
-210 -686 -587 -782 -1045 -36 -172 -34 -409 4 -611 13 -66 73 -250 96 -294 5
-10 24 -47 42 -83 219 -436 662 -745 1157 -808 75 -9 311 -9 387 1 189 23 436
112 597 213 319 201 567 530 659 874 7 25 14 50 15 55 2 6 12 57 23 115 26
145 23 393 -7 536 -67 313 -210 578 -430 792 -129 125 -247 207 -405 282 -218
102 -379 140 -623 146 -89 2 -163 2 -165 0z"/>
</g>
</svg>
